<svg xmlns="http://www.w3.org/2000/svg" width="256" height="256"><path fill="#1976D2" fill-opacity=".016" fill-rule="evenodd" d="M0 128.004v128.004l128.25-.254 128.25-.254.254-127.75L257.008 0H0v128.004m.485.496c0 70.4.119 99.053.265 63.672.146-35.38.146-92.98 0-128C.604 29.153.485 58.1.485 128.5"/><path fill="#1976D2" fill-opacity=".227" fill-rule="evenodd" d="M25.803 94.34C16.374 96.998 8.348 104.125 3.662 114c-7.226 15.227-1.973 33.285 12.494 42.946 14.323 9.564 32.665 7.436 44.442-5.155 7.049-7.535 8.9-12.483 8.901-23.791.001-8.357-.332-10.179-2.769-15.142-7.18-14.619-25.444-22.883-40.927-18.518m91.197.959c0 4.721-5.161 26.83-6.906 29.584-1.411 2.227-2.376-4.093-2.502-16.383-.107-10.505-.21-11.014-2.295-11.312-1.835-.262-2.28.296-2.791 3.5-1.161 7.276-3.606 16.606-5.164 19.701-2.36 4.689-7.29 9.441-10.534 10.153-5.733 1.259-9.463-3.582-6.715-8.715 1.614-3.017-.677-5.073-2.66-2.386-4.94 6.693 2.242 16.887 10.603 15.051 4.428-.972 10.497-7.409 12.619-13.383 1.842-5.185 3.301-5.109 3.33.173.024 4.456 2.646 9.718 4.842 9.718 2.531 0 4.086-1.989 5.622-7.193l1.257-4.256.702 4.682c.854 5.696 3.521 9.392 6.072 8.413 1.712-.657 1.713-.775.031-2.634-1.565-1.729-1.719-3.759-1.386-18.229.374-16.254.371-16.284-1.875-16.603-1.237-.175-2.25-.122-2.25.119m129.571 5.272c-2.087 2.088-1.987 4.743.258 6.774 2.399 2.171 5.458 2.1 7.516-.174 2.151-2.377 2.095-4.462-.174-6.516-2.304-2.086-5.562-2.122-7.6-.084m5.7 2.479c-.079 1.051.278 2.171.793 2.489.515.319.936-.321.936-1.421 0-2.607-1.541-3.56-1.729-1.068m-5.113.95c0 1.375.227 1.938.504 1.25.278-.687.278-1.812 0-2.5-.277-.687-.504-.125-.504 1.25M162 118v15h2.5c2.424 0 2.5-.208 2.5-6.878 0-7.186 1.413-9.945 4.487-8.765 1.165.447 1.513 2.311 1.513 8.112V133h6.212l-.359-7.898c-.445-9.799-2.254-12.465-8.083-11.909l-3.77.36v-5.277c0-4.961-.149-5.276-2.5-5.276H162v15m69 0v15h2.5c2.402 0 2.5-.246 2.5-6.309 0-7.413 1.782-10.864 4.691-9.086 1.421.868 1.872 2.637 2.103 8.25.281 6.841.398 7.145 2.75 7.145 2.403 0 2.456-.171 2.456-8 0-6.813-.314-8.314-2.116-10.116-1.672-1.672-2.931-2.007-6-1.595l-3.884.521v-5.405c0-5.099-.142-5.405-2.5-5.405H231v15m-45.333-12.185c-.903.998-2.142 3.248-2.752 5-.611 1.752-1.517 3.185-2.013 3.185s-.902.675-.902 1.5.45 1.5 1 1.5c.583 0 1 3.333 1 8 0 7.867.042 8 2.5 8s2.5-.133 2.5-8c0-6.444.292-8 1.5-8 .825 0 1.5-.675 1.5-1.5s-.675-1.5-1.5-1.5c-.924 0-1.5-.938-1.5-2.441 0-3.256 1.084-3.747 4.436-2.008 3.778 1.96 5.311 1.823 6.061-.542.891-2.808-.329-4.274-3.114-3.742-1.311.251-2.383.068-2.383-.406 0-1.586-4.67-.883-6.333.954m-56.439 8.224c-2.346.943-3.95 3.572-2.85 4.672.344.344 1.719.04 3.056-.676 2.766-1.48 5.566-.799 5.566 1.354 0 .83-1.393 1.748-3.25 2.143-1.787.38-4.037 1.385-5 2.234-3.499 3.087-1.23 9.494 3.305 9.336 1.345-.047 4.539-.1 7.098-.119 3.206-.024 4.833-.505 5.233-1.547.325-.847-.072-1.762-.903-2.081-1.095-.42-1.483-2.228-1.483-6.905 0-5.414-.323-6.563-2.223-7.893-2.468-1.729-5.131-1.89-8.549-.518m16.407 1.034c-1.915 1.506-2.635 2.993-2.635 5.441 0 1.852.391 3.61.87 3.905.786.486.445 3.067-1.402 10.625-1.649 6.743 9.232 10.405 14.951 5.032 2.914-2.738 3.518-8.054 1.139-10.028-.794-.659-3.606-1.561-6.25-2.005-4.435-.745-4.529-.817-1.213-.925 4.398-.144 6.905-2.666 6.905-6.947 0-1.744.45-3.171 1-3.171s1-.614 1-1.364c0-.865-1.698-1.597-4.64-2-6.567-.9-6.798-.866-9.725 1.437M192 123v10h5v-20h-5v10m10 .057c0 9.892.013 9.943 2.456 9.943 2.356 0 2.468-.298 2.75-7.25.278-6.847.419-7.237 2.544-7.012 1.87.198 2.25-.251 2.25-2.654 0-2.799-.161-2.893-5-2.931l-5-.038v9.942m14.75-8.895c-1.694.619-2.75 1.741-2.75 2.921 0 2.202 1.212 2.426 3.932.727 1.495-.933 2.247-.907 3.487.123 2.395 1.987 1.977 2.546-2.876 3.844-4.806 1.286-7.061 4.015-6.023 7.287.987 3.109 4.779 5.151 7.595 4.091 1.312-.494 3.842-.68 5.623-.415 2.482.371 3.401.062 3.93-1.318.406-1.058.205-1.964-.488-2.195-.719-.24-1.186-2.608-1.195-6.06-.017-6.249-.455-7.326-3.669-9.017-2.563-1.349-3.845-1.347-7.566.012m-68.338 4.206c-1.006 2.621.022 5.132 2.102 5.132 1.538 0 1.986-.674 1.986-2.986 0-3.272-3.043-4.869-4.088-2.146m-17.745 7.299c-1.518 1.518-.52 3.333 1.833 3.333 1.833 0 2.5-.533 2.5-2 0-1.951-2.841-2.825-4.333-1.333m88 0c-1.542 1.541-.584 3.46 1.573 3.153 2.831-.404 3.725-3.82 1-3.82-1.049 0-2.207.3-2.573.667m-71.281 8.769c-1.138 2.966.399 4.711 3.857 4.378 2.724-.263 3.257-.723 3.257-2.814s-.533-2.551-3.257-2.814c-2.243-.216-3.444.173-3.857 1.25M163 136.5c0 .825.675 1.5 1.5 1.5 1.083 0 1.5 1.111 1.5 4 0 2.889.417 4 1.5 4 1.076 0 1.5-1.099 1.5-3.893 0-2.608.516-4.091 1.563-4.493 2.69-1.032.498-2.614-3.622-2.614-2.836 0-3.941.42-3.941 1.5m15.667-.833c-1.129 1.129-.737 9.172.485 9.927.633.391 1.746-.101 2.472-1.095 1.204-1.646 1.377-1.659 1.955-.152.349.909 1.487 1.653 2.528 1.653 2.258 0 2.449-1.294.438-2.963-1.138-.944-1.206-1.608-.31-3.041.878-1.406.839-2.202-.168-3.415-1.31-1.579-6.139-2.176-7.4-.914m16.945 3.959c-.887 2.602-1.612 5.1-1.612 5.552 0 1.312 2.787.949 3.286-.428.358-.989.918-.975 2.681.069 3.161 1.872 3.59.844 1.908-4.571-2.005-6.458-4.2-6.676-6.263-.622m15.293.624c2.344 6.897 4.395 7.253 6.483 1.124 1.982-5.815 1.993-6.374.131-6.374-.814 0-1.78 1.191-2.145 2.647l-.664 2.646-1.387-2.646c-.763-1.456-2.02-2.647-2.794-2.647-1.162 0-1.096.916.376 5.25m15.095.25v5.5h3.5c2.444 0 3.5-.452 3.5-1.5 0-.872-.907-1.5-2.167-1.5-1.191 0-1.829-.338-1.416-.75.412-.412 1.237-.75 1.833-.75 2.174 0 1.799-2.358-.442-2.787l-2.308-.441 2.25-.136c3.887-.235 2.731-3.136-1.25-3.136H226v5.5m15 0v5.5h3.5c2.444 0 3.5-.452 3.5-1.5 0-.833-.889-1.5-2-1.5-1.667 0-2-.667-2-4 0-2.889-.417-4-1.5-4-1.152 0-1.5 1.278-1.5 5.5m-153.361 9.194c-.351.352-.639 2.814-.639 5.473 0 5.312 1.961 6.817 2.064 1.583l.064-3.25 1.617 3.25c2.324 4.669 3.255 4.026 3.255-2.25 0-5.45-1.942-8.037-2.063-2.75-.059 2.552-.126 2.595-.93.602-.991-2.454-2.433-3.593-3.368-2.658m50.857.313c-.343.554.022 1.255.81 1.557.907.348 1.405 1.905 1.358 4.243-.095 4.693 1.725 4.859 2.168.197.182-1.923.741-3.989 1.241-4.592.5-.603.614-1.392.252-1.754-1.022-1.021-5.135-.775-5.829.349m16.89.43c-.33.859-1.452 1.563-2.493 1.563-1.542 0-1.893.742-1.893 4 0 2.2.45 4 1 4s1-1.098 1-2.441c0-3.467 1.8-4.148 2.182-.826.427 3.719 4.405 4.469 5.761 1.087.655-1.634.949-1.82.994-.629.034.93.513 1.969 1.063 2.309.621.384 1-1.509 1-5s-.379-5.384-1-5c-.55.34-1.052 1.829-1.116 3.309-.073 1.693-.286 2.042-.573.941-.252-.963-1.351-1.75-2.443-1.75s-1.727-.419-1.411-.931c.317-.512.115-1.215-.448-1.563-.563-.348-1.293.071-1.623.931m20.361-.837c-.306.496-.317 3.039-.022 5.651.568 5.043 2.693 6.36 5.264 3.262 1.412-1.702.564-6.513-1.148-6.513-.616 0-1.664-.743-2.328-1.651-.664-.909-1.459-1.246-1.766-.749m7.253 4.9c0 3.025.45 5.5 1 5.5s1-2.475 1-5.5-.45-5.5-1-5.5-1 2.475-1 5.5m25.667-4.833c-1.366 1.365-.597 4.269 1.523 5.753 1.204.844 1.89 1.833 1.524 2.199-.366.367-1.311.13-2.101-.525-.844-.701-1.673-.806-2.013-.256-.83 1.343 1.98 3.389 4.102 2.986 2.707-.514 2.987-5.47.356-6.306-1.132-.359-2.058-1.128-2.058-1.708 0-.648.588-.567 1.524.21.838.696 1.803.987 2.143.647.34-.34.049-1.305-.647-2.143-1.331-1.604-3.232-1.978-4.353-.857m33.838.478c-.92 2.371-.184 9.355.985 9.355.545 0 1.279-1.35 1.632-3l.641-3 .119 3.25c.171 4.697 2.118 4.008 2.118-.75 0-2.327-.477-4-1.14-4-.627 0-1.719-.787-2.428-1.75-1.179-1.601-1.344-1.61-1.927-.105m-47.255 1.561c-1.46.281-2.292 1.198-2.369 2.614-.412 7.552-.547 7.18 2.605 7.18 2.049 0 3.092-.549 3.324-1.75.214-1.111-.282-1.75-1.359-1.75-1.212 0-1.417-.357-.718-1.25 1.232-1.574 2.302-5.796 1.423-5.614-.361.075-1.668.331-2.906.57m-99.901 5.293c.083 2.749.511 4.999.952 5 .954.001 3.699-6.282 3.699-8.467 0-2.102-1.747-1.937-2.311.218-.435 1.667-.463 1.667-.573 0-.064-.963-.521-1.75-1.017-1.75-.496 0-.833 2.25-.75 4.999m5.291-1.948c-.789 3.945-.185 4.949 2.979 4.949 2.279 0 2.474-.333 2.191-3.75-.242-2.934-.77-3.816-2.425-4.052-1.669-.238-2.247.363-2.745 2.853m6.55.699c.372 4.499 2.039 4.926 2.932.75l.641-3 .119 3.25c.065 1.787.539 3.25 1.055 3.25.515 0 1.118-1.463 1.34-3.25l.403-3.25.16 3.25c.231 4.683 2.16 4.013 2.16-.75v-4H106.879l.311 3.75m10.439-.647c-.783 3.917-.156 4.918 2.921 4.664 2.132-.177 2.45-.693 2.45-3.985 0-3.314-.294-3.782-2.375-3.782-1.856 0-2.511.678-2.996 3.103m6.371.831c0 4.803 1.946 5.553 2.118.816l.119-3.25.641 3c.839 3.922 2.622 3.412 2.622-.75 0-2.802-.379-3.294-2.75-3.566-2.601-.3-2.75-.097-2.75 3.75m20.406-1.414c-.448 1.785-.159 3.155.887 4.201 1.642 1.643 4.707 1.124 4.707-.797 0-.626-.675-.879-1.5-.562-.825.316-1.5.139-1.5-.393 0-.533.708-.969 1.573-.969 2.427 0 1.253-3.451-1.298-3.815-1.675-.239-2.364.321-2.869 2.335M166 155.943c0 4.835 1.702 5.439 2.277.807l.403-3.25.16 3.25c.201 4.087 2.16 4.314 2.16.25 0-1.65.45-3 1-3s1 1.44 1 3.2c0 2.288.307 2.893 1.078 2.122.593-.593.931-2.371.75-3.95-.297-2.602-.727-2.901-4.578-3.179l-4.25-.308v4.058m20 .057c0 4.758 1.947 5.447 2.118.75l.119-3.25.641 3c.716 3.349 2.646 4.117 2.512 1-.22-5.124-.417-5.5-2.89-5.5-2.25 0-2.5.4-2.5 4m29-1.582c0 3.935 1.064 5.582 3.607 5.582 2.125 0 2.393-.448 2.393-4 0-4.792-1.705-5.354-2.277-.75l-.403 3.25-.16-3.25c-.192-3.901-3.16-4.683-3.16-.832m7.185 1.259c.376 4.561 2.038 5.027 2.937.823l.641-3 .119 3.25c.065 1.787.595 3.25 1.178 3.25.614 0 .93-1.579.75-3.75-.271-3.279-.664-3.791-3.125-4.073-2.696-.309-2.801-.162-2.5 3.5M229 156c0 4.792 1.705 5.354 2.277.75l.403-3.25.16 3.25c.231 4.683 2.16 4.013 2.16-.75 0-3.6-.25-4-2.5-4s-2.5.4-2.5 4m6.629-.897c-.783 3.917-.156 4.918 2.921 4.664 2.132-.177 2.45-.693 2.45-3.985 0-3.314-.294-3.782-2.375-3.782-1.856 0-2.511.678-2.996 3.103m-102.379-1.372c-.687.239-1.25 1.25-1.25 2.245 0 1.945 1.725 3 3.75 2.293.688-.239 1.25-1.25 1.25-2.245 0-1.945-1.725-3-3.75-2.293m68.417-.064c-.975.974-.815 4.124.243 4.777 1.546.956 4.09-.564 4.09-2.444 0-.982-.712-2.059-1.582-2.393-1.958-.752-1.94-.752-2.751.06M158.158 156c0 1.375.227 1.938.504 1.25.278-.687.278-1.812 0-2.5-.277-.687-.504-.125-.504 1.25m20 0c0 1.375.227 1.938.504 1.25.278-.687.278-1.812 0-2.5-.277-.687-.504-.125-.504 1.25m-75.658 1c-.34.55-.141 1 .441 1s1.059-.45 1.059-1-.198-1-.441-1-.719.45-1.059 1m135 0c-.34.55-.141 1 .441 1s1.059-.45 1.059-1-.198-1-.441-1-.719.45-1.059 1"/><path fill="#1976D2" fill-opacity=".289" fill-rule="evenodd" d="M27.248 94.442c-7.174 1.738-13.82 6.067-18.92 12.324-10.962 13.446-9.475 34.47 3.267 46.215 10.12 9.328 24.033 12.025 36.667 7.109 7.376-2.871 14.954-10.165 18.513-17.82 3.6-7.745 3.808-20.227.46-27.6-4.747-10.453-12.786-17.276-23.705-20.12-6.953-1.811-9.188-1.826-16.282-.108m-1.924 1.938c-10.289 3.363-18.222 11.312-21.329 21.372-2.409 7.799-2.502 12.176-.411 19.22 2.913 9.806 9.268 17.218 18.365 21.417 3.559 1.643 6.512 2.1 13.551 2.097 7.897-.004 9.648-.344 14.284-2.779 11.042-5.799 17.223-15.135 17.996-27.182.9-14.018-4.901-24.925-16.684-31.37-5.442-2.978-7.544-3.551-14-3.822-4.578-.191-9.255.225-11.772 1.047m92.22-.13c-.217.688-1.333 6.093-2.482 12.012-1.148 5.919-2.825 12.604-3.726 14.856-1.398 3.494-1.782 3.837-2.619 2.34-.54-.964-1.211-7.762-1.491-15.106C106.782 98.72 106.5 97 105.037 97c-1.316 0-1.926 1.592-2.825 7.375-2.827 18.183-10.582 28.506-19.697 26.218-3.019-.758-4.273-4.746-2.756-8.765.585-1.551.705-3.041.266-3.313-1.545-.954-3.48 2.781-3.48 6.717 0 5.317 3.796 8.768 9.642 8.768 3.465 0 4.711-.638 8.309-4.25 2.824-2.835 5.028-6.414 6.619-10.75l2.385-6.5.572 6.654c.538 6.258 2.84 11.846 4.88 11.846 1.913 0 4.095-3.344 5.749-8.811l1.722-5.689.637 6.253c.678 6.666 3.339 11.248 5.358 9.229.754-.754.696-1.294-.197-1.846-1.819-1.124-2.508-12.117-1.451-23.136.985-10.265.782-12-1.408-12-.784 0-1.602.563-1.818 1.25m-91.179 1.78c-7.797 2.407-16.675 10.604-19.9 18.375l-1.621 3.904 3.242-2.728c2.165-1.821 3.936-2.542 5.328-2.168 1.147.308 2.445.566 2.884.573.439.008 1.399 1.443 2.134 3.19l1.335 3.175 1.565-3.027c3.93-7.599 15.304-13.205 23.955-11.806 4.741.766 12.136 3.739 13.073 5.255.34.55-1.065.118-3.121-.96-4.939-2.589-13.906-1.984-18.636 1.257-9.838 6.741-11.291 17.974-3.428 26.504 6.006 6.515 14.744 8.291 22.171 4.505 2.335-1.191 3.336-1.401 2.632-.553-1.914 2.306-10.11 4.903-15.478 4.903-7.015 0-13.687-2.787-17.936-7.49-1.96-2.17-3.564-4.393-3.564-4.942 0-.548-.45-.997-1-.997s-1 .605-1 1.345C19 138.5 15.575 141 12.624 141c-1.679 0-3.7-1.052-5.281-2.75l-2.562-2.75 1.652 4c3.452 8.358 12.365 16.285 20.91 18.598 5.71 1.545 15.615.585 21.038-2.04 8.722-4.223 16.108-13.984 17.194-22.726.354-2.841.24-3.315-.44-1.832-3.379 7.374-12.791 9.305-18.335 3.761-4.378-4.377-4.345-10.178.083-14.605 5.605-5.605 14.811-3.666 18.252 3.844.68 1.483.794 1.009.44-1.832-1.109-8.923-8.326-18.433-17.277-22.766-5.158-2.497-16.715-3.483-21.933-1.872m220.043 3.47c-1.517 2.316-1.517 2.684 0 5 1.976 3.016 4.884 3.208 7.592.5 2.408-2.408 2.447-2.917.443-5.777-2.107-3.009-5.969-2.875-8.035.277m1.842-.838c-1.768.714-1.553 4.842.334 6.408 3.117 2.587 7.024-2.428 4.376-5.618-1.228-1.48-2.48-1.69-4.71-.79m.438.984c-1.652 1.651-.616 4.104 1.734 4.104 2.03 0 2.297-.335 1.654-2.074-.831-2.247-2.295-3.124-3.388-2.03M162 118c0 14.59.012 14.665 2.25 14.504 2.067-.148 2.291-.764 2.75-7.573.412-6.107.817-7.472 2.298-7.754 3.441-.655 4.702 1.688 4.702 8.731 0 5.997.2 6.663 2 6.663 1.829 0 2-.666 2-7.785 0-6.588-.325-8.111-2.11-9.896-1.665-1.665-2.878-1.987-5.75-1.527l-3.64.584v-5.134c0-4.608-.231-5.153-2.25-5.307-2.239-.171-2.25-.099-2.25 14.494m69.224-.125c.262 13.866.38 14.625 2.276 14.625 1.758 0 2.06-.833 2.5-6.897.522-7.204 2.049-9.565 5.364-8.294 1.314.505 1.636 2.109 1.636 8.153 0 7.238.086 7.512 2.25 7.185 2.031-.306 2.275-.963 2.507-6.743.396-9.831-2.888-14.426-8.732-12.22L236 114.826v-5.788c0-5.523-.116-5.788-2.526-5.788h-2.526l.276 14.625m-46.235-10.625c-1.09 1.787-1.983 4.037-1.985 5-.002.963-.679 1.75-1.504 1.75s-1.5.675-1.5 1.5.431 1.5.958 1.5c.527 0 1.089 3.444 1.25 7.653.27 7.065.465 7.68 2.542 7.994 2.174.329 2.25.071 2.25-7.653 0-6.439.292-7.994 1.5-7.994.825 0 1.5-.675 1.5-1.5s-.648-1.5-1.441-1.5c-2.001 0-2.81-1.635-2.027-4.1.455-1.435 1.253-1.928 2.564-1.585 1.047.274 1.904.127 1.904-.327 0-.453.273-1.536.607-2.406.458-1.195-.035-1.582-2.015-1.582-1.884 0-3.178.914-4.603 3.25m7.581-.572c-.364.949.024 2.344.893 3.214 1.383 1.382 1.704 1.369 3.201-.128 1.375-1.374 1.44-1.933.378-3.214-1.684-2.028-3.666-1.972-4.472.128m-.57 16.341v9.769l2.499-.144c2.483-.143 2.5-.208 2.5-9.769.001-9.6-.005-9.625-2.499-9.625-2.496 0-2.5.015-2.5 9.769m16.185-9.155c-.723.459-2.41.624-3.75.368l-2.435-.465v9.402c0 8.736.142 9.402 2 9.402 1.766 0 2-.666 2-5.703 0-7.272.649-8.868 3.607-8.868 1.886 0 2.393-.53 2.393-2.5 0-2.536-1.429-3.149-3.815-1.636m-80.678 1.772c-2.258 2.258-.426 3.955 2.379 2.203 1.584-.989 2.563-1.046 3.867-.223 2.965 1.87 2.029 3.804-2.171 4.487-5.997.975-8.539 5.816-4.821 9.181 2.144 1.94 14.352 1.877 15.004-.078.221-.663-.086-1.206-.682-1.206-.665 0-1.083-2.48-1.083-6.429 0-4.51-.469-6.897-1.571-8-2.08-2.079-8.818-2.039-10.922.065m16.9.866c-1.074 1.639-1.415 3.449-.989 5.25 1.125 4.749 1.355 10.27.451 10.829-1.55.958-.919 6.064.96 7.764 2.882 2.609 9.739 2.178 12.716-.8 4.801-4.8 2.317-10.545-4.557-10.545-2.129 0-4.148-.45-4.488-1-.361-.583.656-1 2.441-1 4.185 0 7.385-3.325 6.831-7.099-.287-1.958.006-2.901.901-2.901.73 0 1.327-.675 1.327-1.5 0-1.19-1.442-1.5-6.977-1.5-6.34 0-7.127.228-8.616 2.502m71.343-1.422c-.963.561-1.75 1.672-1.75 2.47 0 1.718 1.173 1.877 2.685.365 1.768-1.768 5.815-.694 5.815 1.544 0 1.406-.915 2.146-3.244 2.622-4.464.913-6.256 2.65-6.256 6.063 0 3.793 3.769 5.759 7.988 4.166 1.863-.702 3.187-.735 3.829-.093 1.124 1.124 5.183.119 5.183-1.284 0-.513-.398-.933-.884-.933-.485 0-1.066-2.878-1.29-6.395-.224-3.518-1.007-7.118-1.739-8-1.501-1.809-7.601-2.118-10.337-.525m-67.364 3.046c-1.372 1.516-1.549 2.394-.742 3.683 2.488 3.969 7.265 1.632 5.841-2.857-.852-2.684-3.09-3.046-5.099-.826M7.468 126.035c-1.794 1.983-1.786 2.092.345 4.223L10 132.444l2.187-2.186c2.131-2.131 2.139-2.24.345-4.223C11.519 124.916 10.38 124 10 124c-.38 0-1.519.916-2.532 2.035m10 0c-1.794 1.983-1.786 2.092.345 4.223L20 132.444l2.187-2.186c2.131-2.131 2.139-2.24.345-4.223C21.519 124.916 20.38 124 20 124c-.38 0-1.519.916-2.532 2.035m114.708-.935c-1.46.559-2.199 1.543-1.987 2.645.434 2.252 3.766 2.273 5.18.033 1.501-2.38-.215-3.82-3.193-2.678m87.074-.069c-3.987 1.603-2.346 5.769 1.759 4.466 1.269-.403 1.991-1.514 1.991-3.064 0-2.637-.35-2.768-3.75-1.402M147 134.5c-.993 1.197-.993 1.803 0 3 2.723 3.281 10.074.74 8.643-2.987-.763-1.99-6.995-1.999-8.643-.013m17.5 1.5c-1.71.735-1.747.87-.25.93 1.363.054 1.75.954 1.75 4.07 0 2.2.45 4 1 4s1-1.553 1-3.45c0-2.231.618-3.811 1.75-4.47.963-.561 1.224-1.033.582-1.05-.643-.016-1.768-.224-2.5-.46-.733-.237-2.232-.043-3.332.43m14.994-.161c-.943.943-.489 9.161.506 9.161.55 0 1-.675 1-1.5s.402-1.5.893-1.5 1.152.675 1.469 1.5c.316.825 1.291 1.5 2.166 1.5.991 0 1.308-.457.841-1.212-.412-.667-.653-2.639-.536-4.383.191-2.827-.115-3.219-2.815-3.616-1.666-.244-3.252-.222-3.524.05m18.05.089c-.326.529-1.238 2.786-2.024 5.017-1.509 4.276-.456 5.504 2.405 2.805 1.06-1 1.417-1 1.783 0 .252.688 1.126 1.25 1.943 1.25 1.492 0 1.38-1.027-.723-6.653-.969-2.593-2.569-3.737-3.384-2.419m12.856 1.528c2.199 8.764 4.631 9.837 6.939 3.062 1.816-5.328.316-7.294-1.783-2.339-1.467 3.463-1.523 3.428-3.121-1.929-.729-2.447-2.665-1.301-2.035 1.206m16.052-1.574c-.249.248-.452 2.401-.452 4.785V145l3.75-.136c2.321-.084 2.893-.301 1.5-.57-2.785-.536-2.994-3.294-.25-3.294 1.1 0 2-.45 2-1s-.9-1-2-1-2-.45-2-1 .975-1 2.167-1c1.191 0 1.863-.303 1.492-.674-.776-.777-5.534-1.117-6.207-.444m15.187-.188c-.351.352-.639 2.589-.639 4.973V145l3.75-.136c2.321-.084 2.893-.301 1.5-.57-1.871-.36-2.25-1.085-2.25-4.305 0-3.737-1.035-5.621-2.361-4.295m-60.17 2.356c-.95 1.538.351 2.53 1.635 1.246.718-.718.735-1.277.052-1.699-.56-.346-1.319-.142-1.687.453m16.61 2.533c.048 1.165.285 1.402.604.605.289-.722.253-1.585-.079-1.917-.332-.332-.568.258-.525 1.312M87 154.5c0 2.475.45 4.5 1 4.5s1.018-1.463 1.039-3.25l.039-3.25 1.413 3.25c1.99 4.578 3.509 4.036 3.509-1.25 0-4.462-1.938-6.57-2.068-2.25l-.067 2.25-1.085-2.25c-1.873-3.883-3.78-2.747-3.78 2.25m52.75-3.838c.688.278 1.322 2.38 1.41 4.671.154 4.019.174 4.043.556.667.218-1.925 1.132-4.062 2.031-4.75 1.403-1.072 1.145-1.239-1.806-1.171-1.892.043-2.878.306-2.191.583m16.265 3.505c-.015 4.608 1.056 6.064 3.735 5.079 1.944-.715 1.549-6.198-.5-6.954-.963-.356-2.081-1.129-2.485-1.719-.404-.59-.741 1.027-.75 3.594m20 0c-.015 4.608 1.056 6.064 3.735 5.079 1.944-.715 1.549-6.198-.5-6.954-.963-.356-2.081-1.129-2.485-1.719-.404-.59-.741 1.027-.75 3.594m32.278-2.489c-.422 1.1.105 2.174 1.532 3.122 2.727 1.811 2.84 3.546.175 2.7-2.38-.755-2.724 1.008-.373 1.91 1.861.714 4.373-1.008 4.373-2.997 0-.739-.9-1.824-2-2.413-2.683-1.436-2.587-3.321.125-2.46 1.43.454 1.902.312 1.441-.433-1.047-1.695-4.549-1.316-5.273.571m34.858 2.822c.067 2.75.323 3.875.57 2.5.716-3.992 2.279-4.815 2.279-1.2 0 1.76.45 3.2 1 3.2 1.808 0 1.136-6.013-.75-6.708-.963-.356-2.081-1.129-2.485-1.719-.404-.59-.68 1.177-.614 3.927m-47.901-2.469c-1.876.754-2.25 1.669-2.25 5.503 0 4.427.103 4.587 2.75 4.282 3.462-.398 3.633-3.013.25-3.827-2.485-.598-2.487-.605-.25-1.202 1.601-.427 2.25-1.348 2.25-3.193 0-1.427-.113-2.565-.25-2.531-.137.035-1.262.471-2.5.968M95 152.876c0 .547.46 2.203 1.021 3.681.751 1.975.685 3.094-.25 4.227-1.043 1.265-1.02 1.458.134 1.077.773-.255 1.99-2.448 2.706-4.873 1.407-4.765 1.037-6.792-.526-2.883-.656 1.638-.978 1.861-1.022.704-.066-1.779-2.063-3.649-2.063-1.933m6.429.239c-.525.849-.247 1.029.907.586.915-.351 1.664-.202 1.664.33 0 .533-.627.969-1.393.969-1.8 0-2.745 2.462-1.445 3.762.554.554 1.893.775 2.976.492 1.52-.398 1.9-1.225 1.666-3.626-.318-3.255-2.974-4.781-4.375-2.513m6.707 2.772c.103 2.731.246 3.003.585 1.113.716-3.992 2.279-4.815 2.279-1.2 0 1.76.479 3.2 1.063 3.2.598 0 .926-1.424.75-3.25-.247-2.569-.785-3.274-2.563-3.363-1.962-.099-2.233.348-2.114 3.5m5.672-.404c.226 1.934.84 3.517 1.365 3.517 1.284 0 .607-6.254-.724-6.69-.65-.213-.895.998-.641 3.173m4.621-2.368c-.525.849-.247 1.029.907.586 2.144-.822 2.145.227.002 1.794-2.306 1.686-1.074 4.51 1.654 3.797 1.676-.438 2.052-1.199 1.812-3.664-.318-3.255-2.974-4.781-4.375-2.513M124 155.5c0 1.925.45 3.5 1 3.5s1-1.125 1-2.5c0-3.379 1.763-3.186 2.284.25.335 2.212.446 2.016.566-1 .135-3.373-.101-3.75-2.35-3.75-2.19 0-2.5.433-2.5 3.5m21.701-2.868c-.385.386-.701 1.939-.701 3.451 0 2.778 1.456 4.006 3.75 3.163 2.063-.759 1.408-2.1-.75-1.536-1.118.293-2 .031-2-.593 0-.615.933-1.117 2.073-1.117 1.431 0 1.97-.539 1.739-1.739-.351-1.82-2.907-2.833-4.111-1.629M151 155.5c0 1.925.45 3.5 1 3.5s1-1.035 1-2.3.54-2.84 1.2-3.5c.933-.933.711-1.2-1-1.2-1.848 0-2.2.561-2.2 3.5m11.923-3.25c-.492 1.597-.242 6.75.327 6.75.412 0 .75-1.575.75-3.5s-.225-3.5-.5-3.5-.535.113-.577.25m3.077 3.191c0 1.957.45 3.559 1 3.559s1-1.323 1-2.941c0-1.618-.45-3.219-1-3.559-.595-.368-1 .823-1 2.941m2.827.205c.454 3.885 2.173 4.561 2.173.854 0-3.379 1.763-3.186 2.284.25.341 2.254.443 2.086.566-.933.139-3.415-.053-3.677-2.632-3.604-2.556.073-2.75.352-2.391 3.433M183 155.5c0 1.925.45 3.5 1 3.5s1-1.575 1-3.5-.45-3.5-1-3.5-1 1.575-1 3.5m3-.07c0 1.964.45 3.57 1 3.57s1-1.377 1-3.059c0-1.682.389-2.818.865-2.524.476.294.741 1.67.588 3.059-.152 1.388.162 2.524.698 2.524.537 0 .835-1.463.662-3.25-.24-2.491-.838-3.325-2.563-3.57-1.973-.28-2.25.121-2.25 3.25m30.16-.347c-.188 4.206.276 4.877 2.898 4.192 1.44-.377 1.942-1.383 1.942-3.892 0-1.86-.45-3.383-1-3.383s-1 1.35-1 3c0 4.03-1.77 3.836-2.277-.25l-.403-3.25-.16 3.583m6.976.597c.098 2.732.264 3.108.585 1.32.716-3.992 2.279-4.815 2.279-1.2 0 1.76.479 3.2 1.063 3.2.598 0 .926-1.424.75-3.25-.24-2.491-.838-3.325-2.563-3.57-2.015-.286-2.236.08-2.114 3.5m5.864-.25c0 4.463 1.732 4.706 2.277.32l.403-3.25.16 3.25c.088 1.787.639 3.25 1.223 3.25.598 0 .926-1.424.75-3.25-.24-2.491-.838-3.325-2.563-3.57-1.973-.28-2.25.121-2.25 3.25m7.429-2.315c-.525.849-.247 1.029.907.586 2.144-.822 2.145.227.002 1.794-2.306 1.686-1.074 4.51 1.654 3.797 1.676-.438 2.052-1.199 1.812-3.664-.318-3.255-2.974-4.781-4.375-2.513M146.5 154c-.34.55-.141 1 .441 1s1.059-.45 1.059-1-.198-1-.441-1-.719.45-1.059 1m11.167-.333c-1.038 1.037-.784 4.333.333 4.333.55 0 1-1.125 1-2.5 0-2.618-.231-2.936-1.333-1.833m19.733.733c-.366.954-.171 2.229.434 2.834.8.8 1.282.627 1.766-.634.366-.954.171-2.229-.434-2.834-.8-.8-1.282-.627-1.766.634m17.143-.469c-.317.512-.118 1.213.441 1.559.559.345 1.016-.074 1.016-.931 0-1.757-.6-2.015-1.457-.628m-60.987.979c-.309.5-.283 1.637.058 2.525.48 1.251.932 1.357 2.003.468.761-.631 1.383-1.768 1.383-2.525 0-1.537-2.568-1.886-3.444-.468M201 156c0 1.506.522 2.046 1.75 1.81.963-.186 1.75-1 1.75-1.81s-.787-1.624-1.75-1.81c-1.228-.236-1.75.304-1.75 1.81m-99 1c0 .55.45 1 1 1s1-.45 1-1-.45-1-1-1-1 .45-1 1m17.5 0c-.34.55-.141 1 .441 1s1.059-.45 1.059-1-.198-1-.441-1-.719.45-1.059 1m118 0c-.34.55-.141 1 .441 1s1.059-.45 1.059-1-.198-1-.441-1-.719.45-1.059 1m-43.5 3c0 .55.675 1 1.5 1s1.5-.45 1.5-1-.675-1-1.5-1-1.5.45-1.5 1"/><path fill="#1976D2" fill-opacity=".405" fill-rule="evenodd" d="M28.75 94.662c.688.278 1.813.278 2.5 0 .688-.277.125-.504-1.25-.504s-1.937.227-1.25.504m11.063.021c.721.289 1.584.253 1.916-.079.332-.332-.258-.568-1.312-.525-1.165.048-1.402.285-.604.604m77.816 2.496c-3.126 16.297-4.657 22.958-6.033 26.248-2.723 6.511-3.929 3.28-4.547-12.178-.452-11.311-.815-13.749-2.049-13.749-.859 0-1.62 1.069-1.78 2.5-.682 6.091-3.606 17.8-5.245 21-5.115 9.989-15.892 13.665-19.144 6.529-.876-1.924-.865-3.158.046-5.158 1.308-2.87.586-4.716-.916-2.342-1.318 2.084-1.124 8.176.321 10.058 3.441 4.481 10.058 4.793 15.239.718 2.779-2.186 8.477-12.936 8.478-15.996.001-.93.387-1.93.859-2.221.472-.292 1.132 2.401 1.467 5.985.636 6.817 2.328 11.504 4.395 12.177 1.747.568 5.111-5.44 5.867-10.48.918-6.126 2.413-6.31 2.413-.297 0 5.994 2.243 12.027 4.472 12.027 1.411 0 1.403-.262-.08-2.525-1.407-2.146-1.597-4.863-1.273-18.159.284-11.646.072-15.739-.832-16.046-.667-.227-1.414.632-1.658 1.909m-88.285.841c-8.714 1.769-17.45 8.402-21.519 16.34l-1.978 3.861 2.299-1.611c3.49-2.444 7.378-2.03 9.795 1.043 1.148 1.459 2.211 2.471 2.363 2.25 3.926-5.718 6.571-8.184 11.218-10.458 4.878-2.386 6.372-2.65 12.527-2.209 7.672.549 14.795 4.039 17.844 8.744 1.414 2.182 1.11 2.082-2.536-.832-5.12-4.091-10.342-5.384-16.329-4.042C34.428 113.033 29 119.57 29 128c0 15.084 17.931 22.747 30.231 12.918 2.052-1.64 3.475-2.316 3.163-1.502-.863 2.249-6.863 6.485-11.504 8.123-9.996 3.526-22.19.171-27.87-7.67l-2.796-3.86-1.555 2.373c-2.088 3.187-6.222 4.141-9.275 2.141-3.187-2.089-3.022-.676.477 4.077 6.849 9.302 14.36 13.494 24.444 13.642 12.305.181 22.906-6.024 28.101-16.449 2.544-5.105 3.824-11.527 1.504-7.543-.561.963-2.325 2.425-3.92 3.25-11.347 5.868-22.468-7.349-14.082-16.734 2.625-2.939 3.47-3.266 8.419-3.266 4.447 0 5.997.465 8.082 2.424 3.402 3.196 3.401 1.114-.003-5.717-5.864-11.767-20.222-18.795-33.072-16.187M50 97.43c0 .275.9.981 2 1.57 1.1.589 2 .845 2 .57s-.9-.981-2-1.57c-1.1-.589-2-.845-2-.57m-35.128 3.32c-1.243 1.586-1.208 1.621.378.378.962-.755 1.75-1.543 1.75-1.75 0-.823-.821-.294-2.128 1.372m234.941-1.067c.721.289 1.584.253 1.916-.079.332-.332-.258-.568-1.312-.525-1.165.048-1.402.285-.604.604M58.5 104c2.148 2.2 4.131 4 4.406 4 .275 0-1.258-1.8-3.406-4s-4.131-4-4.406-4c-.275 0 1.258 1.8 3.406 4m-48.095.25L8.5 106.5l2.25-1.905c1.238-1.048 2.25-2.06 2.25-2.25 0-.8-.805-.209-2.595 1.905M162 118c0 13.333.095 14 2 14 1.778 0 2-.667 2-6 0-4.689.442-6.442 2.023-8.023 1.607-1.607 2.43-1.805 4-.965 1.679.899 1.977 2.109 1.977 8.023 0 6.298.191 6.965 2 6.965 1.803 0 2-.667 2-6.777 0-9.243-1.666-11.633-7.637-10.96l-4.363.491v-5.377c0-4.71-.248-5.377-2-5.377-1.905 0-2 .667-2 14m26-13.259c-1.976.769-3.732 3.183-4.506 6.197-.345 1.341-1.384 2.997-2.31 3.679-1.573 1.158-1.568 1.285.066 1.919 1.448.561 1.75 1.955 1.75 8.071 0 5.905.302 7.393 1.5 7.393 1.2 0 1.5-1.5 1.5-7.5s.3-7.5 1.5-7.5c.825 0 1.5-.675 1.5-1.5s-.705-1.5-1.566-1.5c-2.654 0-1.426-5.43 1.316-5.82 1.446-.205 2.25-1.009 2.25-2.25 0-1.998-.455-2.178-3-1.189M232 118c0 13.333.095 14 2 14 1.809 0 2-.667 2-6.965 0-6.013.282-7.116 2.064-8.069 3.562-1.907 4.936.363 4.936 8.156 0 6.211.194 6.878 2 6.878 1.818 0 2-.667 2-7.309 0-9.973-1.945-12.224-9-10.416-2.467.632-2.496.57-2.157-4.817.312-4.981.159-5.458-1.75-5.458-2.024 0-2.093.46-2.093 14m-39-10c0 1.333.667 2 2 2s2-.667 2-2-.667-2-2-2-2 .667-2 2m-185.722.25C5.779 110.188 4.836 112 5.326 112c.244 0 1.181-1.125 2.082-2.5 1.686-2.573 1.592-3.476-.13-1.25m58.753 6.25c0 .55.436 1.675.969 2.5.533.825.969 1.05.969.5s-.436-1.675-.969-2.5c-.533-.825-.969-1.05-.969-.5m63.219.531c-1.238.498-2.25 1.604-2.25 2.46 0 1.396.249 1.392 2.433-.039 1.923-1.26 2.878-1.356 4.56-.456 3.056 1.636 2.076 4.23-1.995 5.281-4.744 1.225-5.998 2.451-5.998 5.867 0 3.617 3.732 5.754 7.25 4.152 1.238-.563 3.713-.809 5.5-.547 2.007.295 3.25.052 3.25-.636 0-.612-.45-1.113-1-1.113-.556 0-1-2.667-1-6 0-8.672-3.735-11.789-10.75-8.969m16.405.798c-1.824 2.015-2.241 7.691-.639 8.681.559.346.707 1.129.329 1.741-.379.612-.816 2.269-.972 3.681-.156 1.412-.573 3.761-.926 5.22-1.823 7.526 12.111 9.503 15.443 2.191 1.517-3.33 1.418-4.035-.89-6.343-1.323-1.323-3.333-2-5.941-2-5.344 0-6.023-1.661-1.024-2.506 4.908-.829 7.388-3.961 6.365-8.037-.49-1.951-.357-2.549.454-2.047.674.416 1.146.066 1.146-.851 0-2.421-11.113-2.197-13.345.27M193 123c0 8.333.148 9 2 9s2-.667 2-9-.148-9-2-9-2 .667-2 9m9 .09c0 8.243.15 8.91 2 8.91 1.791 0 2-.667 2-6.378 0-6.376 1.575-9.621 3.956-8.149.585.362 1.044-.19 1.044-1.256 0-1.575-.769-1.912-4.5-1.968l-4.5-.068v8.909m14.25-7.87c-1.238.597-2.25 1.692-2.25 2.433 0 1.804.956 1.697 3.23-.361 2.225-2.014 5.087-.8 5.563 2.359.235 1.558-.561 2.137-3.989 2.898-3.372.749-4.486 1.54-5.243 3.723-.792 2.281-.589 3.145 1.147 4.881 1.677 1.677 2.693 1.941 4.951 1.288 1.563-.451 4.304-.7 6.091-.553 1.823.151 3.25-.205 3.25-.81 0-.593-.45-1.078-1-1.078-.563 0-1-2.81-1-6.429 0-4.51-.469-6.897-1.571-8-1.791-1.79-5.87-1.946-9.179-.351m-68.05 1.98c-3.22 3.22.913 9.611 4.364 6.747 2.662-2.209 1.172-7.947-2.064-7.947-.605 0-1.64.54-2.3 1.2m-80.121 4.383c.048 1.165.285 1.402.604.605.289-.722.253-1.585-.079-1.917-.332-.332-.568.258-.525 1.312M1.3 128c0 3.025.187 4.262.416 2.75.229-1.512.229-3.987 0-5.5S1.3 124.975 1.3 128m16.2-2c-1.834 2.026-1.831 2.113.126 4.071l2 2L21.5 130c1.834-2.026 1.831-2.113-.126-4.071l-2-2L17.5 126m113.114-.471c-1.696 1.696-1.131 4.471.911 4.471 2.835 0 4.475-1.322 4.475-3.607 0-2.812-2.963-3.288-5.386-.864m87.915-.174c-2.499 1.827-1.319 4.896 1.717 4.465 1.615-.229 2.344-1.099 2.57-3.07.355-3.08-1.262-3.606-4.287-1.395M7.958 126.55c-1.062 1.281-.997 1.84.378 3.214 1.552 1.553 1.776 1.553 3.328 0 1.375-1.374 1.44-1.933.378-3.214-.708-.852-1.627-1.55-2.042-1.55-.415 0-1.334.698-2.042 1.55m139.792 6.53c-2.564 1.494-2.161 4.776.75 6.102 4.877 2.222 9.815-2.467 6.3-5.982-1.452-1.452-4.668-1.507-7.05-.12M68.158 135c0 1.375.227 1.938.504 1.25.278-.687.278-1.812 0-2.5-.277-.687-.504-.125-.504 1.25m96.092 1.689c1.292.338 1.75 1.486 1.75 4.384 0 2.16.45 3.927 1 3.927s1-1.767 1-3.927c0-2.898.458-4.046 1.75-4.384.963-.251-.275-.457-2.75-.457s-3.713.206-2.75.457m14.75 3.748c0 2.509.45 4.563 1 4.563s1-.675 1-1.5.464-1.5 1.031-1.5c.568 0 1.291.675 1.607 1.5.317.825 1.258 1.5 2.091 1.5 1.136 0 1.244-.328.429-1.31-.598-.72-.99-2.632-.872-4.25.192-2.639-.119-2.972-3.036-3.253-3.238-.313-3.25-.296-3.25 4.25m17.158-.571c-1.536 5.128-1.488 5.357.817 3.918 1.559-.974 2.233-.976 3.2-.009 2.312 2.312 2.702 1.22 1.17-3.275-1.881-5.521-3.657-5.738-5.187-.634m15.497.634c1.729 5.074 3.82 5.861 4.65 1.75.305-1.512.86-3.537 1.232-4.5.395-1.02.216-1.75-.43-1.75-.609 0-1.114.787-1.122 1.75-.009.963-.443 2.425-.965 3.25-.758 1.199-1.176.848-2.082-1.75-.624-1.787-1.512-3.25-1.975-3.25-.463 0-.152 2.025.692 4.5m15.345 0c0 4.431.05 4.498 3.25 4.4 2.914-.089 2.999-.169.824-.777-3.097-.866-3.934-3.123-1.157-3.123 1.146 0 2.083-.45 2.083-1s-.99-1-2.2-1c-2.536 0-1.389-1.544 1.7-2.287 1.295-.311.854-.522-1.25-.597-3.202-.114-3.25-.05-3.25 4.384m14 0c0 4.438.045 4.498 3.25 4.364 2.35-.099 2.627-.256 1-.57-1.878-.361-2.25-1.083-2.25-4.364 0-2.161-.45-3.93-1-3.93s-1 2.025-1 4.5m-60-2c0 .825.675 1.5 1.5 1.5s1.5-.675 1.5-1.5-.675-1.5-1.5-1.5-1.5.675-1.5 1.5m-114.376 1.039c-.965 2.514-.681 3.163.498 1.136.584-1.004.851-2.036.593-2.293-.257-.258-.749.263-1.091 1.157m131.012.967c-.348.907.003 1.494.895 1.494 1.618 0 1.986-1.563.574-2.435-.493-.305-1.153.119-1.469.941M5.97 145.944c.573 1.07 1.535 2.25 2.139 2.623.604.374.325-.501-.62-1.944-2.002-3.055-3.038-3.518-1.519-.679m54.161 4.142c-2.403 2.748-6.453 6.082-9 7.409-2.547 1.326-4.276 2.433-3.841 2.458 2.214.131 8.796-4.338 12.985-8.816 4.063-4.344 5.48-6.273 4.475-6.092-.138.025-2.216 2.293-4.619 5.041m-50.22 1.251c1.462 1.82 7.089 6.105 7.089 5.398 0-.22-1.912-1.92-4.25-3.778-2.338-1.857-3.615-2.587-2.839-1.62m78.221 3.413c.124 4.475.167 4.547.753 1.25l.622-3.5 1.368 3.25c1.946 4.623 3.146 4.022 2.993-1.5-.125-4.523-.162-4.583-.783-1.25l-.652 3.5-1.742-3.25c-.958-1.787-1.956-3.25-2.217-3.25-.261 0-.415 2.137-.342 4.75m51.544-3.972c.646.412 1.358 2.542 1.581 4.735l.407 3.987.168-4.167c.092-2.291.731-4.393 1.418-4.671.688-.277-.1-.533-1.75-.568-1.686-.036-2.485.264-1.824.684m16.403 3.472c-.043 2.613.281 4.75.72 4.75.44 0 .632-1.687.428-3.75-.576-5.805-1.061-6.228-1.148-1m19.991 0c-.038 2.613.285 4.75.719 4.75.435 0 .772-1.012.75-2.25-.021-1.238.411-2.25.961-2.25s.983 1.007.961 2.239c-.021 1.275.338 1.862.835 1.365 1.36-1.36.378-5.604-1.296-5.604-.825 0-1.806-.675-2.18-1.5-.374-.825-.711.637-.75 3.25m32.328-3.084c-.422.682.469 2.114 2.147 3.452 2.417 1.927 2.607 2.386 1.209 2.923-.912.35-2.242.305-2.956-.099-.989-.56-1.026-.44-.154.505 1.55 1.681 4.755.934 5.167-1.206.216-1.118-.58-2.083-2.238-2.713-3.028-1.151-3.521-3.509-.573-2.738 1.1.287 2 .115 2-.384 0-1.321-3.756-1.11-4.602.26M243 154.5c0 2.658.236 4.597.525 4.308.787-.787.899-7.717.137-8.479-.364-.364-.662 1.513-.662 4.171m-141.493-1.511c-.35.566.051.734.941.393.854-.328 1.552-.146 1.552.404s-.675 1.259-1.5 1.576c-.825.316-1.448 1.377-1.384 2.357.109 1.669.145 1.671.573.031.559-2.138 2.311-2.327 2.311-.25 0 .825.381 1.5.846 1.5.465 0 .789-1.012.72-2.25-.22-3.95-2.587-6.143-4.059-3.761m9.407 2.968.464 3.543.571-3c.723-3.801 2.349-3.772 3.224.057.64 2.801.664 2.774.5-.557-.149-3.017-.521-3.506-2.698-3.543-2.318-.04-2.487.247-2.061 3.5m7.593-2.968c-.341.552.03.742.84.431.798-.306 1.716-.127 2.041.398.324.525-.305 1.189-1.399 1.475-1.983.518-2.86 3.707-1.02 3.707.532 0 .709-.675.393-1.5-.362-.942.01-1.5 1-1.5.989 0 1.361.558 1 1.5-.317.825-.078 1.5.531 1.5 1.748 0 1.324-5.703-.475-6.393-2.072-.795-2.194-.779-2.911.382m9.414 2.762c.478 3.451.547 3.521.877.877.197-1.579-.036-3.266-.519-3.749-.503-.503-.656.722-.358 2.872m18.329-3.033c-1.482.532-1.68 4.898-.261 5.775.566.35.734-.051.393-.941-.423-1.1.018-1.552 1.511-1.552 1.159 0 2.107-.395 2.107-.878 0-1.379-2.371-2.9-3.75-2.404m12.727.754c.692.834 1.023 2.42.734 3.524-.288 1.104-.116 1.755.382 1.446 1.535-.948 1.003-5.191-.734-5.858-1.371-.526-1.434-.379-.382.888m8.273-.805c-.687.275-1.197 1.925-1.132 3.666l.119 3.167.631-2.943c.348-1.619 1.082-2.944 1.632-2.944.55 0 1.303 1.325 1.673 2.944.652 2.853.667 2.838.5-.48-.173-3.431-1.089-4.344-3.423-3.41m5.671 3.084c.478 3.451.547 3.521.877.877.197-1.579-.036-3.266-.519-3.749-.503-.503-.656.722-.358 2.872m16.738-.551c.842 4.422 1.341 4.803 1.341 1.026 0-1.71-.443-3.382-.985-3.717-.615-.38-.749.63-.356 2.691m3.885-1.95c-.217.688-.315 2.825-.219 4.75.138 2.767.591 3.5 2.161 3.5 1.097 0 2.138-.784 2.324-1.75.225-1.172-.292-1.75-1.57-1.75-1.941 0-2.579-3.354-.694-3.65.525-.083.83.288.679.824-.151.536.167.702.707.368 1.362-.842.166-3.542-1.57-3.542-.784 0-1.602.563-1.818 1.25m32.377 2.501c.478 3.451.547 3.521.877.877.197-1.579-.036-3.266-.519-3.749-.503-.503-.656.722-.358 2.872m6.738-.551c.842 4.422 1.341 4.803 1.341 1.026 0-1.71-.443-3.382-.985-3.717-.615-.38-.749.63-.356 2.691m3.848-2.211c-.35.566.051.734.941.393.854-.328 1.552-.146 1.552.404s-.675 1.259-1.5 1.576c-1.646.631-2.085 3.638-.531 3.638.532 0 .709-.675.393-1.5-.362-.942.01-1.5 1-1.5.989 0 1.361.558 1 1.5-.317.825-.078 1.5.531 1.5 1.748 0 1.324-5.703-.475-6.393-2.072-.795-2.194-.779-2.911.382m9.303 2.511c.225 1.925.81 3.5 1.299 3.5 1.021 0 1.182-3.079.284-5.418-1.077-2.806-2.003-1.683-1.583 1.918m-149.691.271c.838 2.511.789 3.672-.209 5-1.168 1.553-1.141 1.577.271.229.864-.825 1.834-2.85 2.155-4.5.322-1.65.332-2.414.023-1.697-.423.983-.901.86-1.946-.5-1.213-1.578-1.249-1.395-.294 1.468m12.113.229c0 1.925.206 2.713.457 1.75.252-.963.252-2.537 0-3.5-.251-.963-.457-.175-.457 1.75m17 0c0 1.925.206 2.713.457 1.75.252-.963.252-2.537 0-3.5-.251-.963-.457-.175-.457 1.75m21.268-2c-.34.55.11 1 1 1s1.34-.45 1-1c-.34-.55-.79-1-1-1-.21 0-.66.45-1 1m5.5 2c0 1.65.174 3 .387 3 .212 0 .584-1.35.826-3s.069-3-.386-3-.827 1.35-.827 3m11.232 0c0 1.925.206 2.713.457 1.75.252-.963.252-2.537 0-3.5-.251-.963-.457-.175-.457 1.75m20 0c0 1.925.206 2.713.457 1.75.252-.963.252-2.537 0-3.5-.251-.963-.457-.175-.457 1.75m2.768 0c0 1.65.174 3 .387 3 .212 0 .584-1.35.826-3s.069-3-.386-3-.827 1.35-.827 3m30 0c0 1.65.372 3 .827 3 .455 0 .628-1.35.386-3s-.614-3-.826-3c-.213 0-.387 1.35-.387 3m3.232 0c0 1.925.206 2.713.457 1.75.252-.963.252-2.537 0-3.5-.251-.963-.457-.175-.457 1.75m4 0c0 1.925.206 2.713.457 1.75.252-.963.252-2.537 0-3.5-.251-.963-.457-.175-.457 1.75m5.768 0c0 1.65.174 3 .387 3 .212 0 .584-1.35.826-3s.069-3-.386-3-.827 1.35-.827 3m-95.5-1c-.399.646-.276 1.624.274 2.174.667.667 1.242.609 1.726-.174.399-.646.276-1.624-.274-2.174-.667-.667-1.242-.609-1.726.174m68.5 1c0 .55.702 1 1.559 1s1.281-.45.941-1c-.34-.55-1.041-1-1.559-1s-.941.45-.941 1m-183.267 2.124c.679.684 1.486.991 1.793.683.308-.308-.247-.867-1.233-1.243-1.425-.542-1.54-.428-.56.56M194 160c0 .55.675 1 1.5 1s1.5-.45 1.5-1-.675-1-1.5-1-1.5.45-1.5 1m-165.25 1.662c.688.278 1.813.278 2.5 0 .688-.277.125-.504-1.25-.504s-1.937.227-1.25.504m11 0c.688.278 1.813.278 2.5 0 .688-.277.125-.504-1.25-.504s-1.937.227-1.25.504"/></svg>